<svg id="Layer_1" data-name="Layer 1" xmlns="http://www.w3.org/2000/svg" viewBox="0 0 568.9 621"><defs><style>.cls-1{fill:red;}</style></defs><path class="cls-1" d="M671.3,520.4l18-17.9,87.9,98.7-82.5,93.3L588.8,577.8l111.3-122-5.4-5.4-18,18-71.8-77.2,16.2-19.8-5.4-5.3-111.3,122L398.5,371.4l84.4-91.5L569,375l-16.1,19.8,5.4,5.4,140-150.8-5.4-5.4-18,16.2-86.1-93.4,84.3-93.3L777.2,190.2,667.7,310.4l5.4,5.4,18-16.2,68.2,77.2-16.2,18,5.4,5.4L863.4,279.9,967.5,394.8l-82.6,93.3-89.7-96.9,17.9-19.8-5.4-5.3L665.9,515Z" transform="translate(-398.5 -73.5)"/></svg>