<svg id="Layer_1" data-name="Layer 1" xmlns="http://www.w3.org/2000/svg" viewBox="0 0 744.6 541.5"><defs><style>.cls-1{fill:red;}</style></defs><path class="cls-1" d="M.3,452.2H.7C-.2,452.7-.2,452.7.3,452.2Zm161-138.6c-7.3,50.6-37,99.4-78.5,123.1C59.6,450,19.4,452.2.7,452.2c4.1-3.6,26-26.4,27.4-27.8,63.4,0,101.7,11.9,119-110.8,7.3-52.5,17.8-111.3,26.5-172.9-12.3,13.3-25.1,28.3-39.7,45.6l-1.4-.4c15.1-16.9,28.3-32.4,41.1-47,2.3-14.6,4.1-29.2,5.9-43.8l8.7-7.3-.5-.4c-44.2,25.1-72.9,53.3-111.3,98.9l-1.3-.4c39.7-44.7,75.7-81.2,109-101.3,4.5-2.7,8.6-4.5,11.8-4.5s1.9,9.1,1,12.7l-5.5,26.5c15-15.5,30.1-29.2,46-40.6,2.3-.5,6-.5,7.8.5C273,132.5,219.2,313.6,161.3,313.6ZM231.1,91.9l8.6-7.3-.4-.4a327.3,327.3,0,0,0-48.4,38.7c-8.2,42.5-19.6,106.8-26,164.2l-1.3,12.4h.9l3.2-12.4C223.8,287.1,255.7,148.5,231.1,91.9Z" transform="translate(0 0)"/><path class="cls-1" d="M278.9,133l1,.4c32.4-28.7,69.3-63.8,96.7-100.3-15.5-4.1-30.6-1.4-45.2,5.5-15.5,10.5-29.6,30.1-44.2,51.5h-1.4L291.3,76c3.2-13.7,5-25.6,7.7-36.1.9-3.6,2.8-12.7-.9-12.7s-7.3,1.8-11.8,4.5C252.9,51.8,216.9,88.3,177.2,133l1.4.4c38.3-45.6,67-73.9,111.3-98.9l.5.4-8.7,7.3c-6.4,83.5-20.1,140-38.3,200.7-2.3,6.8,0,13.2,5.4,17.8a17.2,17.2,0,0,0,6.4,0c10.4-8.7,19.6-16.4,27.7-23.6.1-1,.2-2,.4-3-9,6.9-17.8,13-26.7,18.8l-.5-.9,11.5-9.6c2.2-50.6,9.1-103.5,18.2-146.4,9.6-15.5,15.5-23.2,25.1-30.5,8.2-4.1,23.7-6.9,37.4-5l12.3-14.6.9.4C345.5,71.9,304.5,111.1,278.9,133Z" transform="translate(0 0)"/><path class="cls-1" d="M588.6,245.2l-7.7,6.8.4.9c29.2-19.1,58-41.5,90.8-83l1.4.9c-27.4,31.1-47.9,52-93.5,89.9-2.8,1.4-5,1.4-8.2,0-8.2-4.1-26.9-24.6-30.1-56.1-4.6-43.8,6.4-87.6,15-110.4A127.4,127.4,0,0,1,601,36.3c15.5-7.3,46-9.6,46,5-18.7,32.4-55.6,83-88.9,119.5C555.4,205,564,222.8,588.6,245.2Zm-30.1-99.9c37.4-29.7,57.5-57.5,79.4-98.1l-.9-.4a162.2,162.2,0,0,1-10.5,15.5c-3.2-11.4-33.3-15.1-48.3,1.4C564.5,87.4,559.5,117.9,558.5,145.3Z" transform="translate(0 0)"/><path class="cls-1" d="M498.3,143.5c-5.4,6.9-10.8,13.3-16,19.2l.5.5c5.5-6,11-12.2,16.9-18.8ZM445.9.2C430.8-1.1,411.7,5.3,398,14.8,378.9,35.2,359.7,88.3,351.4,139l6.1-2.6c4.2-41.4,16.7-81.9,30.9-96.9,9.1-7.3,26.9-12.3,42.9-11.9l4.5-17.8h1C433,41.6,425.4,85.9,416,129.3a105.2,105.2,0,0,1,11.2,2.1c6.4-46.3,15.1-88.8,22.8-117.9C450.9,9.8,451.8,1.6,445.9.2Z" transform="translate(0 0)"/><path class="cls-1" d="M653.9,145.3c-9.2,42.9-16,95.8-18.3,146.4l-11.4,9.6.5.9c29.2-19.2,57.9-41.5,90.7-83l1.4.9c-27.4,31-47.9,52-93.5,89.8a13.8,13.8,0,0,1-6.4,0c-5.4-4.5-7.7-10.9-5.4-17.7,18.2-60.7,31.9-117.3,38.3-200.7l8.6-7.3-.4-.5c-44.3,25.1-73,53.4-111.3,99l-1.4-.5C585,137.5,621,101.1,654.3,81c4.6-2.8,8.7-4.6,11.9-4.6s1.8,9.1.9,12.8c-2.7,10.5-4.6,22.3-7.8,36l-5.4,14.2h1.3c14.6-21.5,28.8-41.1,44.3-51.6,14.6-6.8,29.6-9.6,45.1-5.4-27.3,36.4-64.3,71.6-96.7,100.3l-.9-.5c25.6-21.9,66.6-61.1,82.6-86.6l-.9-.5-12.3,14.6c-13.7-1.8-29.2.9-37.4,5C669.4,122,663.4,129.8,653.9,145.3Z" transform="translate(0 0)"/><path class="cls-1" d="M516.8,233.3c-12,66.9-67.5,142.9-142.2,142.9-93.1,0-99.5-97.2-43.4-152.3l.9.9c-46,53.8-41.5,137.2,52,137.2,63,0,113.6-47.8,120.5-123.5,1-10.9,2.5-22.5,4.4-35.1A118.7,118.7,0,0,1,516.8,233.3Z" transform="translate(0 0)"/><path class="cls-1" d="M400.1,128.2c64.9,0,117.7,54.3,117.7,121V537.5H282.3V249.2c0-66.7,52.9-121,117.8-121m0-4c-67.1,0-121.8,56.1-121.8,125V541.5H521.8V249.2c0-68.9-54.6-125-121.7-125Z" transform="translate(0 0)"/><path class="cls-1" d="M551.5.4c-3.2,0-7.3,1.8-11.8,4.5-17.8,11-36.5,26.5-56.6,45.6,3.2-14.1,6.4-26.9,9.1-37.4.9-3.6,2.8-12.7-.9-12.7S484,2.2,479.5,4.9c-33.3,20.1-69.4,56.6-109,101.3l1.3.4C410.1,61,438.9,32.8,483.1,7.7l.5.4-8.7,7.3c-1.4,16.9-2.7,32.9-5,48.4-12.3,12.7-25.5,27.3-39.2,42.4l1.3.4c13.7-15.9,25.6-30.1,37.9-42.4-3.6,28.7-8.2,54.4-13.6,78.7,3.5,2,7,4.2,10.4,6.6,4.3-35.6,10.2-69.7,16.4-98A319.6,319.6,0,0,1,543.3,7.7l.5.4-8.7,7.3c-4.5,64.3-13.7,115.9-21,158.3-4.4,4.6-8.8,9-13.2,13.1l.3.5c4.3-4.3,8.5-8.5,12.5-12.7-1.8,10.1-3.3,19.7-4.7,28.8-1.9,12.6-3.4,24.2-4.4,35.1C497.7,314.2,447.1,362,384.1,362c-93.5,0-98-83.4-52-137.2l-.9-.9c-56.1,55.1-49.7,152.3,43.4,152.3,74.7,0,130.2-76,142.2-142.9.4-2.1.7-4.2,1-6.3,2.7-20,6.4-42.8,10-67,4.6-5.5,9.1-10.5,14.1-16l-1.3-.9c-4.1,5.5-8.2,10.5-12.3,15.1,6.4-42,14.6-90.3,24.1-145.1C553.4,9.5,555.2.4,551.5.4Z" transform="translate(0 0)"/></svg>